<svg id="delmarva" viewBox="0 0 462.1 114.2"><g fill="#221f1f"><path d="M63.8 64.8c6.3 0 10.9-1.5 14-4.5 5.5-5.4 5.8-15.4 5.8-17.4 0-5.2-1.1-12.1-6.2-16.2-4.3-3.4-8.7-3.4-12.3-3.4-2.9 0-4.6 0-5.6.1 0 .8-.1 1.8-.1 2.9-.1 2.3-.2 5-.2 6.5v27c0 1.5.1 3.1.1 4.8 1.1.1 2.5.2 4.5.2z"></path><path d="M67.7 73.6c-1.7 0-5-.1-8.2-.3-2.7-.1-5.3-.2-6.4-.2-1.7 0-6.8.1-10.9.5l-1.8.2.2-1.8c.6-5.9.9-11.1.9-15.9V43.4L0 114.2h133.7L99.8 56.3c-5 10.8-16.5 17.3-32.1 17.3zM70.8 14.4c1.6 0 3.1.1 4.6.2L66.9 0l-8.6 14.8c.8 0 1.5 0 2.3-.1 3.3-.1 6.7-.3 10.2-.3z"></path></g><path d="M42.9 31.6c0-5.2-.3-10.4-.9-15.6 2.8.3 5.5.5 8.3.5 6.9 0 13.6-.5 20.5-.5 17 0 30.3 9.1 30.3 27 0 15.8-10.9 29.1-33.4 29.1-3.1 0-12.2-.5-14.6-.5-1.6 0-6.9.1-11 .5.5-5.3.9-10.7.9-16V31.6zm14.8 28.1c0 2 .1 4.1.2 6.2 1.1.2 2.9.4 5.9.4 5 0 10.9-.9 15.1-4.9 5.7-5.6 6.2-15.5 6.2-18.5 0-4.9-1-12.8-6.8-17.4-4.6-3.6-9.4-3.7-13.2-3.7-4.5 0-6.1.1-7.1.2 0 1.7-.3 8-.3 10.8v26.9z" fill="#e01e2d"></path><g fill="#221f1f"><path d="M154.2 62.9c-1.3 2.6-1.8 4.3-2.3 5.8-5.4 3.4-12.3 3.9-15.5 3.9-14.6 0-22.6-8.6-22.6-20.7 0-15 10.8-20.5 22.1-20.5 13.7 0 19.8 7.9 19.8 17.9 0 1-.2 2.5-.3 3.2-5.1-.2-10.2-.3-15.3-.3-3.7 0-6.1.1-11.9.3-.1 5 1 13.5 12.8 13.5 2.6 0 7.3-.3 11.6-4.6l1.6 1.5zm-12.3-15c-.1-9.4-1.8-12.6-6.3-12.6-3.5 0-7.5 2.6-7.3 12.6h13.6zM183.4 71.5c-2.6-.3-5.1-.4-7.6-.4s-5 .1-7.5.4c.5-8.3.7-22.3.7-31.3 0-5.1-.2-22.4-.8-27.6 1.8.2 4.6.4 7.6.4 3.1 0 5.8-.2 7.5-.4-.4 4.2-.7 15.2-.7 27.1 0 11.8.3 24.4.8 31.8zM212.3 38.6c3.4-4.9 7.8-7 14.3-7 6.2 0 10.1 2.1 12.5 7.3 3.3-4.6 8-7.3 14.2-7.3 8.7 0 14 4.3 14 13.2-.1 4.9-.1 13.2-.1 18.4 0 4 .3 6 .4 8.3-2.6-.3-5.2-.4-7.7-.4-2.8 0-5.7.2-7.1.4.6-5.8.9-12.9.9-18.7 0-8.2-.2-13.5-6.4-13.5-5.4 0-7.4 3.4-7.4 9.9v14.6c0 2.2.3 5.5.4 7.8-2.6-.2-5-.4-7.6-.4-2.2 0-4.8 0-7 .4.7-5 1-11.4 1-16.6 0-11.6-.8-15.6-6.8-15.6-6.4 0-7 5.6-7 9.8v14.3c0 2.1.1 5.4.4 8.2-2-.2-4.7-.4-7.5-.4-3.3 0-6.1.2-7.1.4.4-3 .5-6.2.5-9.3V43.9c0-4-.3-7.9-.7-11.8 2.3.3 4.8.4 7.1.4 2.5 0 4.9-.2 7.3-.4l-.6 6.5zM285.2 41.9c-.3-1.7-.7-3.6-1.6-5 6-4.3 12.1-5.3 16.7-5.3 4.7 0 9.6 1 13.2 3.8 3 2.4 3.7 5.8 3.7 9.2 0 3.8-.4 9.2-.4 17.2 0 3 0 5.6 3 5.6 1 0 2.2-.3 2.9-1-.2 1.1-.2 2.2 0 3.2-1.8 1-5.5 2.8-9.4 2.8-6 0-7.7-3.7-8.4-5.2-1.8 2.1-4.8 5.5-12.1 5.5-9.8 0-12.5-6.2-12.5-10.8 0-8.3 5.8-10 17.6-13.2 6.2-1.7 6.2-2 6.2-4.2 0-4.5-2.7-6.9-7.9-6.9-5.9 0-9.2 2.8-10.9 4.2l-.1.1zm8.2 18.5c0 2.4.6 5.9 5.3 5.9 2.5 0 4.3-1.3 4.9-3.5.4-1.6.4-3.9.4-11.5-8.3 1.6-10.6 3.5-10.6 9.1zM359.3 44.6c-1.5-1-3-1.7-4.8-1.7-6.2 0-6.2 6.2-6.2 11.4 0 2.6.1 10.2.9 17.2-2.3-.3-5.5-.4-8-.4-3 0-5.9.2-7 .4.4-5 .6-7 .6-17.4 0-8.5 0-14.6-.7-22 1.2.2 4 .4 7.3.4 3.1 0 5.8-.2 6.9-.4l-.6 8.4c4.1-9.4 8.8-9.1 13.2-8.9-.4 2.6-.9 6.6-.6 12.4l-1 .6zM401.8 59.5c-3.3 7.7-3.6 9-4.5 11.9-1.8-.2-3.8-.4-5.7-.4-1.8 0-3.8.2-5.6.4-2.5-8.7-10.2-28.3-15.7-39.4 2.8.4 5.6.4 8.4.4 2.6 0 5.4 0 8-.4 1.6 6.6 4.8 15.6 8.6 26.4 6.6-17.4 7-18.2 9.4-26.4 2 .3 4 .4 5.2.4 1.4 0 2.8-.2 4.2-.4-1.1 1.8-2.9 4.7-4.5 8.6l-7.8 18.9zM424.6 41.9c-.3-1.7-.7-3.6-1.6-5 6-4.3 12.1-5.3 16.7-5.3 4.7 0 9.6 1 13.2 3.8 3 2.4 3.7 5.8 3.7 9.2 0 3.8-.4 9.2-.4 17.2 0 3 0 5.6 3 5.6 1 0 2.2-.3 2.9-1-.2 1.1-.2 2.2 0 3.2-1.8 1-5.5 2.8-9.4 2.8-6 0-7.7-3.7-8.4-5.2-1.8 2.1-4.8 5.5-12.1 5.5-9.8 0-12.5-6.2-12.5-10.8 0-8.3 5.8-10 17.6-13.2 6.2-1.7 6.2-2 6.2-4.2 0-4.5-2.7-6.9-7.9-6.9-5.9 0-9.2 2.8-10.9 4.2l-.1.1zm8.2 18.5c0 2.4.6 5.9 5.3 5.9 2.5 0 4.3-1.3 4.9-3.5.4-1.6.4-3.9.4-11.5-8.4 1.6-10.6 3.5-10.6 9.1z"></path></g><g fill="#fff"><path d="M55 86.9c-.6-2.4-2.5-3.1-4.2-3.1-.6 0-3.7.1-3.7 2.8 0 2 1.5 2.6 6.2 4.5.9.4 2.2 1.2 3.1 2.5.7 1.1 1 2.4 1 3.6 0 4.2-3 7.3-8.6 7.3-3.3 0-5.1-1-6.2-1.6.4-1.3.7-3.3.7-4.4h.8c.5 2.9 3 3.7 4.9 3.7 2.7 0 3.9-1.6 3.9-3.2 0-1.8-1.1-2.3-5.1-4-2.9-1.3-4.9-2.9-4.9-6.5 0-4.4 3-6.9 7.9-6.9 3.1 0 4.7.9 6 1.5-.6 1.1-1 3-1.1 3.8H55zM69 104c-1-.1-1.9-.2-2.9-.2s-2 .1-3 .2c.3-2.8.3-10 .3-11.6 0-3.3 0-7.5-.3-10.7.9.1 1.9.2 3 .2 1.3 0 2.5-.1 2.9-.2-.2 3.6-.3 7.9-.3 11.6 0 3.1 0 7.9.3 10.7zM79.5 84.5c-1.6 0-3.6 0-6 .3.1-.5.2-1.1.2-1.6s-.1-1-.2-1.4c1.6.2 4.9.3 8.7.3 4 0 6.6-.1 8.7-.3-.1.6-.2 1.1-.2 1.5 0 .5.1 1.2.2 1.5-1.9-.2-4-.3-5.8-.3-.1 1.4-.1 3.6-.1 6v8c0 1.9.1 3.7.2 5.4-.9-.1-2.3-.2-3.2-.2s-2 .1-2.9.2c.3-1.5.3-5.5.3-7.3.2-3.9.2-8.2.1-12.1zM95.5 86c0-1.4-.1-2.9-.3-4.2 2.8.1 5.5.3 7.5.3 1.8 0 3.5-.1 5.7-.3-.1.5-.2 1-.2 1.5s0 1.1.2 1.6c-2.1-.4-5.2-.4-7.3-.4-.1 1.2-.1 2.3-.1 3.4v3.3c2.6 0 4.7 0 7.2-.4-.1.5-.2 1-.2 1.5s.1 1 .2 1.5c-2.4-.3-4.2-.3-7.2-.3v6.4c0 .5 0 .9.1 1.4 1.6 0 5 0 7.3-.5-.1.5-.2 1.1-.2 1.5 0 .5.1 1.1.2 1.7-2.1-.2-5.1-.3-7.3-.3-2.1 0-4.2.1-6 .3.3-1.6.4-4.6.4-6.4V86z"></path></g><g fill="#221f1f"><path d="M130.7 88c0-2-.1-4.1-.3-6.2 1 .1 2 .2 3 .2 2.5 0 4.9-.2 7.4-.2 6.1 0 10.9 3.6 10.9 10.7 0 6.2-3.9 11.5-12 11.5-1.1 0-4.4-.2-5.2-.2-.6 0-2.5 0-4 .2.2-2.1.3-4.2.3-6.3V88zm5.3 11.1c0 .8 0 1.6.1 2.4.4.1 1.1.2 2.1.2 1.8 0 3.9-.4 5.4-2 2-2.2 2.2-6.1 2.2-7.3 0-2-.4-5.1-2.4-6.9-1.7-1.4-3.4-1.5-4.7-1.5-1.6 0-2.2 0-2.6.1 0 .7-.1 3.2-.1 4.3v10.7zM157.3 86c0-1.4-.1-2.9-.3-4.2 2.8.1 5.4.3 7.4.3 1.8 0 3.4-.1 5.7-.3-.1.5-.2 1-.2 1.5s0 1.1.2 1.6c-2.1-.4-5.2-.4-7.3-.4-.1 1.2-.1 2.3-.1 3.4v3.3c2.6 0 4.7 0 7.1-.4-.1.5-.2 1-.2 1.5s.1 1 .2 1.5c-2.4-.3-4.2-.3-7.1-.3v6.4c0 .5 0 .9.1 1.4 1.6 0 5 0 7.2-.5-.1.5-.2 1.1-.2 1.5 0 .5.1 1.1.2 1.7-2-.2-5-.3-7.2-.3-2 0-4.1.1-5.9.3.3-1.6.4-4.6.4-6.4V86zM188.8 89.3c.9-2.5 1.8-5 2.4-7.5.7.1 1.4.2 2.1.2.7 0 1.4-.1 1.8-.2-3.5 7.2-6.3 14.7-8.8 22.3-.6-.1-1.3-.2-2-.2-.5 0-1 .1-1.6.2-.5-2-1.3-3.9-2-5.9-4.7-12.3-4.9-12.8-6.7-16.5 1.1.1 2.2.2 3.4.2 1.2 0 2.3-.1 3-.2 1.6 5.2 3.4 10.3 5.5 15.4l2.9-7.8zM199.7 86c0-1.4-.1-2.9-.3-4.2 2.8.1 5.4.3 7.4.3 1.8 0 3.4-.1 5.7-.3-.1.5-.2 1-.2 1.5s0 1.1.2 1.6c-2.1-.4-5.2-.4-7.3-.4-.1 1.2-.1 2.3-.1 3.4v3.3c2.6 0 4.7 0 7.1-.4-.1.5-.2 1-.2 1.5s.1 1 .2 1.5c-2.4-.3-4.2-.3-7.1-.3v6.4c0 .5 0 .9.1 1.4 1.6 0 5 0 7.2-.5-.1.5-.2 1.1-.2 1.5 0 .5.1 1.1.2 1.7-2-.2-5-.3-7.2-.3-2 0-4.1.1-5.9.3.3-1.6.4-4.6.4-6.4V86zM218.2 86.9c0-2-.2-3.8-.3-5.1 1 .2 2 .2 3.1.2 1 0 2-.1 2.9-.2-.2 2.3-.4 5-.4 6.3v10.4c0 .9 0 1.9.1 2.8 2.1 0 5.6 0 7.5-.4-.1.8-.2 1.2-.2 1.5 0 .5.1 1.1.2 1.5-1.6-.1-3.7-.3-5.5-.3-2.2 0-4.8.2-7.7.3.2-1.7.3-3.6.3-5.8V86.9zM246.2 104.4c-7.1 0-12.3-3.8-12.3-11.4 0-6.8 4.4-11.7 12.5-11.7 6.9 0 12.4 3.7 12.4 11.1-.1 8.3-6.2 12-12.6 12zm.2-20.8c-4.9 0-6.7 4.6-6.7 9.6 0 6.4 3.1 8.9 6.5 8.9 4.1 0 6.8-3.5 6.8-9.6-.1-5.3-2.4-8.9-6.6-8.9zM270.1 98.8c0 1.2.1 3.4.2 5.2-1-.1-2.1-.2-3.1-.2-1.1 0-2 .1-2.8.2.4-2.6.4-9.7.4-13 0-6.2-.1-7.7-.3-9.2 1.7.1 3.4.2 4.1.2 1.4 0 2.8-.2 4.2-.2 4.4 0 7.8 1.2 7.8 6.2 0 4.9-3.8 6.6-7.9 6.6-.6 0-2-.1-2.6-.1v4.3zm.1-6.4h.8c1.6 0 4.1-.4 4.1-4.4 0-2.7-1.2-4-3.7-4-.4 0-.7 0-1.1.1l-.1 8.3zM310 96.4c.3 2.5.7 5.1 1.2 7.6-1-.2-1.9-.2-2.9-.2-1.4 0-2.1.1-3.1.2 0-1.4-.1-3.1-.5-7-.1-1.2-.7-6.7-.8-7.8-2.2 4.5-2.4 5.1-4.6 10.1-1.2 2.9-1.4 3.4-1.9 4.7-.2 0-.6-.1-1.2-.1-.5 0-.9 0-1.2.1-.3-1.1-.7-2.2-1.8-4.8-1.4-3.3-2.9-6.6-4.4-9.9-.4 3.1-.9 6.3-1.1 9.4-.1 1.7-.3 3.4-.3 5.2-.6-.1-1.2-.2-1.7-.2s-1.2.1-1.8.2c.3-1.2.5-2.5.7-3.8l2.2-14.7c.2-1.2.3-2.5.4-3.7.6.1 1.7.2 2.3.2.7 0 1.5-.1 2.1-.2.7 2.4 4.7 12 6.1 14.8 1.8-3.8 3.5-7.6 5.1-11.4.8-1.8 1-2.4 1.3-3.4.8.2 1.5.2 2.3.2.8 0 1.3-.1 2-.2.1 1.2.2 3 .4 4.2l1.2 10.5zM317.4 86c0-1.4-.1-2.9-.3-4.2 2.8.1 5.4.3 7.4.3 1.8 0 3.4-.1 5.7-.3-.1.5-.2 1-.2 1.5s0 1.1.2 1.6c-2.1-.4-5.2-.4-7.3-.4-.1 1.2-.1 2.3-.1 3.4v3.3c2.6 0 4.7 0 7.1-.4-.1.5-.2 1-.2 1.5s.1 1 .2 1.5c-2.4-.3-4.2-.3-7.1-.3v6.4c0 .5 0 .9.1 1.4 1.6 0 5 0 7.2-.5-.1.5-.2 1.1-.2 1.5 0 .5.1 1.1.2 1.7-2-.2-5-.3-7.2-.3-2 0-4.1.1-5.9.3.3-1.6.4-4.6.4-6.4V86zM353.2 89.3c0-.6-.2-5.9-.4-7.5.5.1 1.3.2 1.8.2.6 0 1.2-.1 1.7-.2-.4 2.8-.6 11.7-.6 15.3 0 2.3 0 4.6.3 6.9-.7-.1-1.2-.2-1.9-.2s-1.3.1-1.9.2c-1-1.4-1.4-1.9-4.8-5.9l-8.2-9.2v8c0 1.4.3 5.8.4 7.1-.6-.1-1.2-.2-1.7-.2-.6 0-1.1.1-1.7.2.5-5.9.5-7.3.5-12.6 0-5.8 0-7.4-.2-9.6.7.1 1.4.2 2.1.2.6 0 1.3-.1 1.9-.2 3.1 4.1 10 11.8 12.7 14.8v-7.3zM367.3 84.5c-1.5 0-3.6 0-6 .3.1-.5.2-1.1.2-1.6s-.1-1-.2-1.4c1.6.2 4.9.3 8.6.3 4 0 6.6-.1 8.6-.3-.1.6-.2 1.1-.2 1.5 0 .5.1 1.2.2 1.5-1.9-.2-3.9-.3-5.7-.3-.1 1.4-.1 3.6-.1 6v8c0 1.9.1 3.7.2 5.4-.9-.1-2.3-.2-3.2-.2-.9 0-2 .1-2.8.2.3-1.5.3-5.5.3-7.3.1-3.9.1-8.2.1-12.1z"></path></g><g fill="#221f1f"><path d="M399.8 104c-1-.1-1.9-.2-2.9-.2s-2 .1-3 .2c.3-2.8.3-10 .3-11.6 0-3.3 0-7.5-.3-10.7.9.1 1.9.2 3 .2 1.3 0 2.5-.1 2.9-.2-.2 3.6-.3 7.9-.3 11.6 0 3.1 0 7.9.3 10.7zM424 89.3c0-.6-.2-5.9-.4-7.5.5.1 1.3.2 1.8.2.6 0 1.2-.1 1.7-.2-.4 2.8-.6 11.7-.6 15.3 0 2.3 0 4.6.3 6.9-.7-.1-1.2-.2-1.9-.2s-1.3.1-1.9.2c-1-1.4-1.4-1.9-4.8-5.9l-8.2-9.2v8c0 1.4.3 5.8.4 7.1-.6-.1-1.2-.2-1.7-.2-.6 0-1.1.1-1.7.2.5-5.9.5-7.3.5-12.6 0-5.8 0-7.4-.2-9.6.7.1 1.4.2 2.1.2.6 0 1.3-.1 1.9-.2 3.1 4.1 10 11.8 12.7 14.8v-7.3zM451.5 86.7c-.8-1.9-3.1-3.1-5.6-3.1-4.9 0-7.3 4.2-7.3 9.3 0 5.4 2.7 9.2 7.6 9.2 2.5 0 4.3-1.1 6-2.5l.5.3c-.3.7-.6 1.6-.9 3-2.1 1-4.5 1.4-6.8 1.4-7.8 0-12.3-5-12.3-11.4 0-6.8 4.9-11.6 12.6-11.6 2.7 0 5.3.5 7.7 1.6-.6 1.2-.8 3-.9 3.7h-.6zM456.4 101.4c0-1.6 1.3-2.8 2.8-2.8 1.6 0 2.8 1.3 2.8 2.8 0 1.6-1.2 2.8-2.8 2.8-1.6.1-2.8-1.2-2.8-2.8z"></path></g></svg>