<svg id="_9920775951556105709" data-name="9920775951556105709" xmlns="http://www.w3.org/2000/svg" width="30" height="30" viewBox="0 0 30 30">
  <path id="Path_15975" data-name="Path 15975" d="M15,0A15,15,0,1,0,30,15,15,15,0,0,0,15,0ZM11.7,7.048C12.555,7.01,12.828,7,15,7h0c2.173,0,2.445.01,3.3.048a5.89,5.89,0,0,1,1.943.372,4.093,4.093,0,0,1,2.34,2.34,5.926,5.926,0,0,1,.372,1.942c.038.853.048,1.126.048,3.3s-.01,2.445-.048,3.3a5.93,5.93,0,0,1-.372,1.942,4.1,4.1,0,0,1-2.339,2.34,5.881,5.881,0,0,1-1.943.372c-.853.039-1.125.048-3.3.048s-2.445-.01-3.3-.048a5.876,5.876,0,0,1-1.942-.372A4.094,4.094,0,0,1,7.42,20.24,5.879,5.879,0,0,1,7.048,18.3C7.01,17.445,7,17.173,7,15s.01-2.446.048-3.3A5.844,5.844,0,0,1,7.42,9.759,4.092,4.092,0,0,1,9.76,7.42,5.871,5.871,0,0,1,11.7,7.048Z" fill="#fff" fill-rule="evenodd"/>
  <path id="Path_15976" data-name="Path 15976" d="M19.431,13.506h.728c2.166,0,2.423.008,3.278.047a4.492,4.492,0,0,1,1.506.279,2.688,2.688,0,0,1,1.539,1.54,4.483,4.483,0,0,1,.279,1.506c.039.855.047,1.112.047,3.277s-.008,2.422-.047,3.277a4.488,4.488,0,0,1-.279,1.506,2.69,2.69,0,0,1-1.539,1.539,4.474,4.474,0,0,1-1.506.279c-.855.039-1.112.047-3.278.047s-2.423-.008-3.278-.047a4.5,4.5,0,0,1-1.506-.28,2.688,2.688,0,0,1-1.54-1.539,4.482,4.482,0,0,1-.279-1.506c-.039-.855-.047-1.112-.047-3.279s.008-2.422.047-3.277a4.492,4.492,0,0,1,.279-1.506,2.689,2.689,0,0,1,1.54-1.54,4.482,4.482,0,0,1,1.506-.28c.748-.034,1.038-.044,2.55-.046Zm5.058,1.347a.973.973,0,1,0,.973.973.973.973,0,0,0-.973-.973Zm-8.5,5.3a4.166,4.166,0,1,1,4.166,4.165A4.166,4.166,0,0,1,15.992,20.156Z" transform="translate(-5.158 -5.156)" fill="#fff" fill-rule="evenodd"/>
  <path id="Path_15977" data-name="Path 15977" d="M22.439,19.733a2.7,2.7,0,1,1-2.7,2.7A2.7,2.7,0,0,1,22.439,19.733Z" transform="translate(-7.438 -7.438)" fill="#fff"/>
</svg>
