<svg xmlns="http://www.w3.org/2000/svg" width="30" height="30" viewBox="0 0 30 30">
  <path id="_13197462491556105726" data-name="13197462491556105726" d="M15,0A15,15,0,1,0,30,15,15,15,0,0,0,15,0Zm-.418,12.711-.031-.519A3.033,3.033,0,0,1,16.6,9.142,3.584,3.584,0,0,1,18.433,9.1a4.27,4.27,0,0,1,.892.466l.514.35.567-.18a5.852,5.852,0,0,0,.923-.36c.178-.1.336-.148.336-.116a3.081,3.081,0,0,1-.713,1.133c-.441.477-.315.519.577.2.535-.18.546-.18.441.021a6.92,6.92,0,0,1-.735.816c-.588.583-.619.646-.619,1.133a10.925,10.925,0,0,1-.714,3.178,9.211,9.211,0,0,1-3.494,4.11,8.863,8.863,0,0,1-6.883.784A7.985,7.985,0,0,1,7.5,19.7a3.1,3.1,0,0,1,.86-.085,5.907,5.907,0,0,0,2.812-.784l.567-.339-.651-.222a3.172,3.172,0,0,1-1.962-1.737c-.063-.222-.042-.233.546-.233l.609-.011-.514-.244a3.388,3.388,0,0,1-1.437-1.356,3.8,3.8,0,0,1-.378-1.419,1.238,1.238,0,0,1,.493.116c.724.265.818.2.4-.244a3.057,3.057,0,0,1-.651-3.135L8.371,9.5l.692.689a8.534,8.534,0,0,0,4.994,2.457Z" fill="#fff" fill-rule="evenodd"/>
</svg>
