<?xml version="1.0" encoding="UTF-8"?><svg id="Layer_2" xmlns="http://www.w3.org/2000/svg" viewBox="0 0 897.9101 208.1029"><g id="Components"><g id="_95625f2b-07cf-490c-82f6-2bfbae3fbb91_1"><polygon points="120.1483 0 0 208.1029 240.2965 208.1029 120.1483 0"/><path d="M63.6555,138.8737c.8306-8.8188,1.786-20.3985,1.786-31.7579l.2866-49.413c0-9.9399-1.0743-20.0612-2.2695-30.4203l-.2866-2.4782,2.4821.2652c6.3757.6824,11.4218.9866,16.3605.9866,6.8515,0,13.7342-.2535,20.3907-.4972,6.6916-.2457,13.6133-.5011,20.5389-.5011,37.962,0,62.4921,21.9427,62.4921,55.9038,0,38.7536-24.3916,60.0958-68.6826,60.0958-10.3416,0-19.2852-.1521-26.472-.2749-5.278-.0916-9.819-.1696-13.6718-.1696-4.9856,0-8.2924.1326-10.7257.4289l-2.4626.3003.234-2.4684ZM99.0458,124.9523c2.6166.3529,5.9448.5323,9.9224.5323,12.8353,0,22.2469-3.0202,28.7708-9.2341,10.909-10.7159,11.7591-29.8744,11.7591-35.4897,0-8.5926-1.6651-24.3292-12.8197-33.1753-8.8871-6.9548-18.2674-6.9548-25.115-6.9548-6.4342,0-10.1914.1404-12.2095.2574-.0429,1.6963-.1248,4.0282-.2164,6.6019-.1657,4.6872-.3529,10.0004-.3529,13.1064v53.7084c0,3.4803,0,7.0621.2613,10.6477Z" style="fill:#e01e2d;"/><path d="M122.9435,27.054c33.9416,0,60.4959,18.1687,60.4959,53.9073s-21.7625,58.1-66.6853,58.1c-17.7649,0-30.9224-.4436-40.1446-.4436-4.6119-.0002-8.2385.1106-10.9675.4436.9983-10.5816,1.797-21.3631,1.797-31.945,0,0,.2866-49.4021.2865-49.4021,0-10.0925-1.0852-20.2781-2.2831-30.6601,5.5904.5991,10.9811.9983,16.5715.9983,13.7763,0,27.1533-.9983,40.9296-.9983M108.9675,127.4813c9.9828,0,21.7625-1.797,30.1481-9.7832,11.3804-11.1807,12.3787-30.9468,12.3787-36.9364,0-9.7832-1.9966-25.5561-13.5766-34.7403-9.1842-7.1876-18.7678-7.3872-26.3547-7.3872s-12.1791.1996-14.1756.3992c0,3.3943-.5989,15.9725-.5989,21.563,0,0,0,53.7076,0,53.7074,0,3.9931,0,8.1861.3993,12.3788,2.1962.3992,5.79.7987,11.7797.7987M60.9032,22.5514l.5723,4.9602c1.1893,10.307,2.2568,20.3729,2.2568,30.2024-.001.165-.2864,49.3789-.2864,49.3789,0,11.2882-.9509,22.8121-1.7794,31.5931l-.4659,4.9395,4.9248-.6008c2.3498-.2864,5.5833-.4143,10.4841-.4141,3.8276,0,8.373.0775,13.6362.1677,7.1945.1228,16.1482.2759,26.5084.2759,22.9137,0,40.7037-5.6144,52.8757-16.6874,11.813-10.7464,17.8027-26.0231,17.8027-45.4058,0-35.1731-25.3134-57.9004-64.489-57.9004-6.9615,0-13.9008.2552-20.6115.5018-6.6387.2442-13.5033.4965-20.3181.4965-4.8704,0-9.8501-.301-16.146-.9756l-4.9646-.532h0ZM101.2971,42.793c2.1761-.0877,5.4629-.1657,10.2659-.1657,6.5576,0,15.5386,0,23.8937,6.5386,10.477,8.3097,12.0445,23.3634,12.0445,31.5958,0,3.8574-.5392,23.63-11.184,34.0881-6.0894,5.7986-15.0502,8.6385-27.3497,8.6385-3.1037,0-5.7912-.1094-8.032-.3263-.154-2.9734-.154-5.9524-.154-8.8581v-53.7074c0-3.0716.1872-8.3655.3524-13.0362.0615-1.7382.1191-3.366.1631-4.7672h0Z" style="fill:#fff;"/><path d="M337.574,137.8633c-5.1911-.599-10.1825-.7986-15.1739-.7986s-9.9828,0-14.9742.7986c.9983-16.5715,1.3976-44.5234,1.3976-62.4925s-.3993-44.7231-1.5973-55.1052c3.5938.3993,9.1842.7986,15.1739.7986s11.5801-.3993,14.9742-.7986c-.7986,8.3856-1.3976,30.3478-1.3976,54.1069s.599,48.7162,1.5973,63.4908ZM395.2748,72.1763c6.7883-9.7832,15.5732-13.976,28.5509-13.976s20.1653,4.1928,24.9571,14.5749c6.5887-9.1842,15.9725-14.5749,28.3512-14.5749s27.9519,8.5852,27.9519,26.3547c-.1997,9.7832-.1997,26.3547-.1997,36.7368s.5989,11.9794.7986,16.5715c-5.1911-.599-10.3822-.7986-15.3736-.7986s-11.3804.3993-14.1756.7986c1.198-11.5801,1.7969-25.7557,1.7969-37.3358s-.3993-26.9536-12.778-26.9536-14.7746,6.7883-14.7746,19.766v29.1498c0,4.3924.599,10.9811.7986,15.5732-5.1911-.3993-9.9828-.7986-15.1739-.7986s-9.5835,0-13.976.7986c1.3976-9.9828,1.9966-22.7608,1.9966-33.143,0-23.1601-1.5973-31.1464-13.5766-31.1464s-13.976,11.1808-13.976,19.5663v28.5509c0,4.1928.1997,10.7815.7986,16.3718-3.9931-.3993-9.3838-.7986-14.9742-.7986s-12.1791.3993-14.1756.7986c.7986-5.9897.9983-12.3787.9983-18.5681v-36.9364c0-7.9863-.599-15.7729-1.3976-23.5595,4.5921.599,9.5835.7986,14.1756.7986s9.7832-.3993,14.5749-.7986l-1.198,12.9777h.0001ZM688.7698,84.1557c-2.9948-1.9966-5.9897-3.3942-9.5835-3.3942-12.3787,0-12.3787,12.3787-12.3787,22.7608s.1997,20.365,1.7969,34.3409c-4.5921-.599-10.9811-.7986-15.9725-.7986s-11.7797.3993-13.976.7986c.7986-9.9828,1.198-13.976,1.198-34.7402s0-29.1498-1.3976-43.9244c2.3959.3993,7.9863.7986,14.5749.7986s11.5801-.3993,13.7763-.7986l-1.198,16.7711c8.1859-18.7677,17.5697-18.1687,26.3547-17.7694-.7986,5.1911-1.7969,13.1773-1.198,24.7574l-1.9966,1.1979h0ZM773.6238,113.9045c-6.5886,15.3735-7.1876,17.9691-8.9845,23.7591-3.5938-.3993-7.5869-.7986-11.3804-.7986s-7.5869.3993-11.1808.7986c-4.9914-17.3701-20.365-56.5028-31.3461-78.6647,5.5904.7986,11.1808.7986,16.7711.7986s10.7814,0,15.9725-.7986c3.1945,13.1773,9.5835,31.1464,17.1705,52.7093,13.1773-34.7402,13.976-36.3375,18.7677-52.7093,3.9931.599,7.9863.7986,10.3822.7986s5.5904-.3993,8.3856-.7986c-2.1962,3.5938-5.79,9.3839-8.9845,17.1705l-15.5732,37.7351ZM615.6955,127.6847c-.9584,1.0183-3.1146,1.9966-5.7901,1.9966-5.9897,0-5.9897-4.5921-5.9897-11.1808,0-15.9725.7987-27.5526.7987-34.3408s-1.3976-13.5767-7.3873-18.3684c-7.1876-5.5904-17.1704-7.5869-26.3547-7.5869s-21.3633,1.9966-33.3427,10.5818c1.797,2.7951,2.5956,6.5886,3.1946,9.9828v-.1997h.1996c3.3942-2.7951,11.3804-8.3855,21.7626-8.3855s15.7728,4.7917,15.7728,13.7762c0,4.3925,0,4.9914-12.3786,8.3856-23.5596,6.389-35.1396,9.7832-35.1396,26.3547,0,9.1841,10.3822,21.5629,24.9571,21.5629s20.5646-6.7884,24.1585-10.9811c1.3975,2.9948,4.7917,10.3822,16.7711,10.3822,7.7867,0,15.174-3.5938,18.7678-5.5904-.3993-1.9966-.3993-4.1929,0-6.389ZM567.778,127.485c-9.3839,0-10.5818-6.988-10.5818-11.7797,0-11.1808,4.5921-14.9742,21.1635-18.1688,0,22.9007-1.1979,29.9485-10.5818,29.9485ZM897.9101,127.6847c-.9584,1.0183-3.1146,1.9966-5.7901,1.9966-5.9897,0-5.9897-4.5921-5.9897-11.1808,0-15.9725.7987-27.5526.7987-34.3408s-1.3976-13.5767-7.3873-18.3684c-7.1876-5.5904-17.1704-7.5869-26.3547-7.5869s-21.3633,1.9966-33.3427,10.5818c1.797,2.7951,2.5956,6.5886,3.1946,9.9828v-.1997h.1996c3.3942-2.7951,11.3804-8.3855,21.7626-8.3855s15.7728,4.7917,15.7728,13.7762c0,4.3925,0,4.9914-12.3786,8.3856-23.5596,6.389-35.1396,9.7832-35.1396,26.3547,0,9.1841,10.3822,21.5629,24.9571,21.5629s20.5646-6.7884,24.1585-10.9811c1.3975,2.9948,4.7917,10.3822,16.7711,10.3822,7.7867,0,15.174-3.5938,18.7678-5.5904-.3993-1.9966-.3993-4.1929,0-6.389ZM849.9925,127.485c-9.3839,0-10.5818-6.988-10.5818-11.7797,0-11.1808,4.5921-14.9742,21.1635-18.1688,0,22.9007-1.1979,29.9485-10.5818,29.9485ZM251.1227,99.3335c10.1826,0,20.365.1996,30.5475.5989.1996-1.3976.5989-4.1329.5989-6.389,0-19.9656-16.9708-35.7384-39.532-35.7384s-44.1242,16.7711-44.1242,40.9296,15.9725,41.3289,45.1224,41.3289c6.3889,0,20.1653-.9983,30.9468-7.7867.9983-2.9948,2.5156-7.0478,4.5921-11.5801l-3.1946-2.9948c-3.0347,5.9497-9.2441,9.1841-23.1601,9.1841-23.5594,0-25.7557-16.9708-25.556-26.9536,11.5801-.5989,13.5766-.5989,23.759-.5989ZM242.1382,65.5915c8.9845,0,12.3787,6.389,12.5785,25.1568h-27.1534c-.3993-19.9656,5.5904-25.1568,14.5749-25.1568Z"/></g></g></svg>
