<?xml version="1.0" encoding="UTF-8"?><svg id="Layer_2" xmlns="http://www.w3.org/2000/svg" viewBox="0 0 897.9102 208.0996"><g id="Components"><g id="_2a0becce-9daf-481e-a6a5-a99d907cacc8_1"><path d="M122.9502,21.0698c-5.0901,0-10.1702.1299-15.1401.2998L120.1501,0l12.4399,21.5396c-3.1101-.3101-6.3298-.4697-9.6399-.4697Z" style="fill:#fff;"/><path d="M108.9702,121.4897c-2.28,0-4.3201-.0601-6.1101-.1699-.0801-2.3501-.0801-4.71-.0801-7.0103v-53.71c0-3.04.1902-8.3101.3501-12.9697.04-1.0103.0701-1.9902.0999-2.9004,2.1902-.0596,4.9702-.0996,8.3401-.0996,8.1201,0,15.4299.46,22.6599,6.1099,9.8101,7.7798,11.2803,22.1499,11.2803,30.02,0,3.7197-.5103,22.77-10.5901,32.6699-5.6799,5.3999-14.1902,8.0601-25.95,8.0601Z" style="fill:#fff;"/><path d="M76.6101,138.6196c-4.6101,0-8.24.1099-10.97.4399,1-10.5801,1.8-21.3599,1.8-31.9399l.0898-15.9897,29.8501-51.7002c-.03,3.8901-.5901,15.7803-.5901,21.1699v53.71c0,3.9902,0,8.1802.4001,12.3701,2.2.3999,5.7898.7998,11.78.7998,9.98,0,21.7598-1.7896,30.1499-9.7798,11.3799-11.1802,12.3799-30.9497,12.3799-36.9399,0-9.7803-2-25.5498-13.5798-34.7402-9.1799-7.1797-18.77-7.3799-26.3501-7.3799-7.3,0-11.8298.1899-13.9399.3701l6.6499-11.52c6.1902-.2202,12.3901-.4302,18.6702-.4302,4.6199,0,9.1099.3403,13.4099,1.02l43.5601,75.4502c-7.8,22.3301-28.6501,35.5298-63.1599,35.5298-17.77,0-30.9302-.4399-40.1501-.4399Z" style="fill:#fff;"/><path d="M240.3,208.0996H0l61.48-106.4897-.0298,5.4697c0,11.2202-.9399,22.6802-1.77,31.4204l-.7002,7.4097,7.3901-.8999c2.24-.27,5.49-.3999,10.24-.3999,3.8101,0,8.3499.0801,13.5999.1699,7.2102.1201,16.1702.27,26.5503.27,33.6699,0,56.8699-12.4199,66.9697-34.9302l56.5701,97.98Z" style="fill:#fff;"/><path d="M136.3601,28.0796c-4.3-.6797-8.79-1.02-13.4099-1.02-6.28,0-12.48.21-18.6702.4302-7.3899.27-14.7698.5601-22.26.5601-5.5898,0-10.98-.3999-16.5798-.9902,1.2,10.3804,2.2898,20.5601,2.2898,30.6602l-.2,33.4102-.0898,15.9897c0,10.5801-.8,21.3599-1.8,31.9399,2.73-.3301,6.3599-.4399,10.97-.4399,9.22,0,22.3801.4399,40.1501.4399,34.5098,0,55.3599-13.1997,63.1599-35.5298,2.3499-6.73,3.52-14.29,3.52-22.5698,0-30.8701-19.8101-48.6304-47.0801-52.8804ZM139.1201,117.6997c-8.3901,7.9902-20.1699,9.7798-30.1499,9.7798-5.9902,0-9.5801-.3999-11.78-.7998-.4001-4.1899-.4001-8.3799-.4001-12.3701v-53.71c0-5.3896.5601-17.2798.5901-21.1699l.25-.4199c2.1101-.1802,6.6399-.3701,13.9399-.3701,7.5801,0,17.1702.2002,26.3501,7.3799,11.5798,9.1904,13.5798,24.96,13.5798,34.7402,0,5.9902-1,25.7598-12.3799,36.9399Z" style="fill:#e01e2d;"/><path d="M97.3901,39.0298c0,.1201,0,.2598-.01.3999l.25-.4199c-.0801,0-.1599.0098-.24.02ZM97.3901,39.0298c0,.1201,0,.2598-.01.3999l.25-.4199c-.0801,0-.1599.0098-.24.02ZM97.3901,39.0298c0,.1201,0,.2598-.01.3999l.25-.4199c-.0801,0-.1599.0098-.24.02Z"/><path d="M251.1301,99.3398c10.1799,0,20.3601.1899,30.54.5898.2-1.3901.5999-4.1299.5999-6.3901,0-19.96-16.97-35.73-39.5298-35.73s-44.1201,16.77-44.1201,40.9302,15.97,41.3301,45.1201,41.3301c6.3899,0,20.1599-1,30.9399-7.79,1-3,2.52-7.0503,4.5999-11.5801l-3.2-3c-3.03,5.9502-9.24,9.1899-23.1599,9.1899-23.5601,0-25.75-16.9697-25.55-26.96,11.5801-.5898,13.5701-.5898,23.76-.5898ZM242.1401,65.5898c8.99,0,12.3799,6.3896,12.5801,25.1602h-27.1501c-.3999-19.9702,5.5901-25.1602,14.5701-25.1602ZM897.9102,127.6899c-.96,1.0098-3.1101,1.9897-5.79,1.9897-5.99,0-5.99-4.5898-5.99-11.1797,0-15.9702.8-27.5503.8-34.3403s-1.4001-13.5801-7.3901-18.3701c-7.1799-5.5898-17.1699-7.5796-26.3499-7.5796s-21.3601,1.9897-33.3401,10.5796c1.79,2.79,2.5901,6.5903,3.1899,9.98v-.1997h.2002c3.3999-2.79,11.3799-8.3799,21.7598-8.3799,10.3901,0,15.78,4.7896,15.78,13.77,0,4.3896,0,4.9897-12.3799,8.3896-23.5601,6.3901-35.1399,9.7803-35.1399,26.3501,0,9.1899,10.3799,21.5601,24.96,21.5601,14.5698,0,20.5598-6.7803,24.1499-10.98,1.3999,3,4.8,10.3901,16.77,10.3901,7.79,0,15.1799-3.6001,18.77-5.5903-.3999-2-.3999-4.1997,0-6.3896ZM849.9902,127.4897c-9.3801,0-10.5801-6.9897-10.5801-11.7798,0-11.1802,4.6001-14.9805,21.1699-18.1704,0,22.9004-1.2,29.9502-10.5898,29.9502ZM615.7002,127.6899c-.96,1.0098-3.1201,1.9897-5.79,1.9897-5.99,0-5.99-4.5898-5.99-11.1797,0-15.9702.8-27.5503.8-34.3403s-1.4001-13.5801-7.3901-18.3701c-7.1899-5.5898-17.1699-7.5796-26.3599-7.5796-9.1802,0-21.3601,1.9897-33.3401,10.5796,1.8,2.79,2.5999,6.5903,3.2,9.98v-.1997h.2c3.3901-2.79,11.3801-8.3799,21.76-8.3799s15.77,4.7896,15.77,13.77c0,4.3896,0,4.9897-12.3799,8.3896-23.5601,6.3901-35.1401,9.7803-35.1401,26.3501,0,9.1899,10.3901,21.5601,24.96,21.5601,14.5801,0,20.5701-6.7803,24.1602-10.98,1.3999,3,4.79,10.3901,16.77,10.3901,7.79,0,15.1699-3.6001,18.77-5.5903-.4001-2-.4001-4.1997,0-6.3896ZM567.78,127.4897c-9.3799,0-10.5798-6.9897-10.5798-11.7798,0-11.1802,4.5898-14.9805,21.1599-18.1704,0,22.9004-1.2,29.9502-10.5801,29.9502ZM789.8,59.7998c-2.3999,0-6.3899-.2002-10.3799-.7998-4.8,16.3696-5.5901,17.9697-18.77,52.71-7.5901-21.5601-13.98-39.5303-17.1702-52.71-5.1899.7998-10.3799.7998-15.9697.7998s-11.1902,0-16.7803-.7998c10.9902,22.1597,26.3601,61.2998,31.3501,78.6699,3.5901-.4004,7.3901-.8003,11.1802-.8003s7.7898.3999,11.3799.8003c1.8-5.79,2.3999-8.3901,8.99-23.7603l15.5701-37.7397c3.1899-7.79,6.79-13.5801,8.98-17.1699-2.79.3999-5.99.7998-8.3801.7998ZM691.9702,58.1997c-8.79-.3999-18.1702-1-26.3601,17.77l1.2-16.77c-2.2.3999-7.1899.8003-13.78.8003s-12.1799-.4004-14.5701-.8003c1.4001,14.77,1.4001,23.1602,1.4001,43.9199s-.4001,24.7603-1.2,34.7402c2.1899-.3901,8.98-.79,13.97-.79,5,0,11.3801.1997,15.98.79-1.5999-13.9702-1.8-23.9502-1.8-34.3403,0-10.3799,0-22.7598,12.3801-22.7598,3.5898,0,6.5898,1.3999,9.5798,3.3999l2-1.1997c-.5999-11.5801.4001-19.5703,1.2002-24.7603ZM504.8901,121.2896c0-10.3799,0-26.9497.2-36.73,0-17.77-15.5798-26.3599-27.95-26.3599-12.3799,0-21.77,5.3901-28.3501,14.5801-4.7998-10.3901-11.98-14.5801-24.96-14.5801s-21.76,4.1899-28.55,13.98l1.1902-12.98c-4.79.3999-9.98.8003-14.5701.8003s-9.5801-.2002-14.1799-.8003c.7998,7.79,1.3999,15.5698,1.3999,23.5601v36.9399c0,6.1899-.2,12.5698-1,18.5601,2-.3999,8.5898-.79,14.1799-.79s10.98.3901,14.97.79c-.5999-5.5898-.7998-12.1699-.7998-16.3701v-28.5498c0-8.3799,2-19.5601,13.98-19.5601s13.5798,7.98,13.5798,31.1401c0,10.3799-.5999,23.1597-2,33.1396,4.3901-.79,8.79-.79,13.9802-.79s9.98.4004,15.1699.79c-.2002-4.5898-.8-11.1797-.8-15.5698v-29.1499c0-12.98,2.3999-19.7603,14.78-19.7603s12.77,15.3701,12.77,26.9502-.5901,25.75-1.79,37.3301c2.79-.3901,9.1799-.79,14.1699-.79s10.1899.1997,15.3801.79c-.2-4.5903-.8-6.1802-.8-16.5703ZM335.98,74.3696c0-23.7598.6001-45.7197,1.4001-54.1001-3.4001.4004-8.99.8003-14.98.8003s-11.5801-.3999-15.1702-.8003c1.2002,10.3804,1.6001,37.1304,1.6001,55.1001s-.3999,45.9199-1.3999,62.4902c4.99-.79,9.98-.79,14.97-.79s9.99.1997,15.1799.79c-1-14.77-1.6001-39.73-1.6001-63.4902Z" style="fill:#fff;"/><path d="M186.1201,160.2695c-.3999-.98-.3999-2.1597-.3999-3.1499,0-.98.3999-1.9697.3999-2.9497-4.3401.5898-7.3.5898-11.24.5898s-9.26-.5898-14.77-.5898c.5901,2.5596.5901,5.5098.5901,8.27v22.8599c0,3.5498-.2002,9.46-.79,12.6099,3.5498-.5898,7.49-.5898,11.8198-.5898,4.3401,0,10.25.1997,14.3901.5898-.3999-1.1802-.3999-2.5601-.3999-3.3501s.3999-1.9697.3999-2.96c-4.54.9902-11.24.9902-14.3901.9902v-15.3701c5.9102,0,9.4602,0,14.1902.5898-.4001-.98-.4001-1.9697-.4001-2.9497,0-.9902.4001-1.98.4001-2.96-4.9299.79-9.0701.79-14.1902.79v-13.2002c4.1401,0,10.25,0,14.3901.7798ZM151.6301,160.0796c-.3899-.5898-.3899-2.1699-.3899-2.96s.3899-1.77.3899-2.9497c-4.1399.5898-9.6501.5898-17.1399.5898s-13.9902-.2002-17.1401-.5898c.3901.7798.3901,1.77.3901,2.75,0,.9897-.3901,2.1699-.3901,3.1597,4.73-.5898,8.6699-.5898,11.8201-.5898h.2c.1899,7.6802.1899,16.1499-.2,23.8398,0,3.54,0,11.4302-.5901,14.3804,1.77-.3901,3.9399-.3901,5.71-.3901,1.78,0,4.53.3901,6.3101.3901-.3999-3.3501-.3999-6.8901-.3999-10.6401v-27.5801c3.5498,0,7.6899.1899,11.4299.5898ZM108.48,153.9697c-.7898.3901-3.5498.3901-5.71.3901-2.1699,0-4.1399-.3901-5.9199-.3901.6001,6.2998.6001,14.5801.6001,21.0801,0,3.1499,0,17.3398-.6001,22.8599,1.97-.3901,3.95-.3901,5.9199-.3901s3.7402.3901,5.71.3901c-.5898-5.52-.5898-13.79-.5898-21.0801,0-7.2998.2-15.77.5898-22.8599ZM83.6501,177.4199c-1.77-2.5601-4.3301-4.1401-6.1101-4.9302-9.26-3.7397-12.21-3.3501-12.21-8.8701,0-5.5098,3.9399-5.5098,7.29-5.5098s7.0898,1.3799,8.27,6.1001h1.3799c.2002-1.5703.9902-5.3203,2.1702-7.4805-2.5601-1.1899-2.1702-2.96-11.8201-2.96-9.6602,0-15.5701,6.5-15.5701,13.6001,0,7.0903,3.9402,10.2402,9.6599,12.8101,7.8801,3.3398,10.0503,4.7202,10.0503,7.8799,0,3.1504-2.3701,6.3003-7.6902,6.3003-3.74,0-8.6699-1.5703-9.6499-7.29h-1.5801c0,2.1699-.5901,6.1099-1.3801,8.6699,2.1702,1.1802,1.1802,3.1499,12.2202,3.1499,11.0298,0,16.9399-6.1001,16.9399-14.3799,0-2.3599-.5901-4.9302-1.97-7.0898Z"/><path d="M722.1501,159.4897c3.55,0,7.49.1899,11.23.5898-.2-.5898-.3899-2.1699-.3899-2.96s.1899-1.77.3899-2.9497c-3.9399.5898-9.6501.5898-16.95.5898-7.29,0-13.79-.2002-16.9399-.5898.2.7798.3899,1.77.3899,2.75,0,.9897-.1899,2.1699-.3899,3.1597,4.73-.5898,8.8699-.5898,11.8198-.5898,0,7.6802,0,16.1499-.2,23.8398,0,3.54,0,11.4302-.5901,14.3804,1.5801-.3901,3.75-.3901,5.52-.3901s4.53.3901,6.3101.3901c-.2-3.3501-.3999-6.8901-.3999-10.6401v-15.7603c0-4.73,0-9.0698.2-11.8198ZM689.6401,154.1699c-.99.3896-2.3701.3896-3.3501.3896-.99,0-2.5601-.3896-3.5498-.3896.3899,3.1499.7898,13.5898.7898,14.77v14.3896c-5.3201-5.9097-18.9199-21.0898-25.03-29.1597-1.1799.3896-2.3599.3896-3.7397.3896s-2.7603-.3896-4.1401-.3896c.3999,4.3301.3999,8.4697.3999,18.9097s0,13.2002-.99,24.8301c1.1799-.3901,2.3701-.3901,3.3501-.3901.99,0,2.1699.3901,3.3499.3901-.2-2.5601-.7898-11.23-.7898-13.9897v-15.7603l16.1599,18.1201c6.7,7.8901,7.49,8.8701,9.46,11.6299,1.1802-.3901,2.3601-.3901,3.74-.3901s2.3701.3901,3.75.3901c-.5999-4.5298-.5999-6.5-.5999-13.6001,0-7.0898.3999-24.6299,1.1899-30.1396ZM623.8201,159.4897c4.1399,0,10.25,0,14.3899.7798-.3999-.98-.3999-2.1597-.3999-3.1499,0-.98.2002-1.9697.3999-2.9497-4.5298.5898-7.2898.5898-11.23.5898s-9.0698-.5898-14.5798-.5898c.3899,2.5596.5901,5.5098.5901,8.27v22.8599c0,3.5498-.2002,9.46-.79,12.6099,3.54-.5898,7.29-.5898,11.6199-.5898,4.3401,0,10.25.1997,14.1902.5898-.2002-1.1802-.3901-2.5601-.3901-3.3501s.1899-1.9697.3901-2.96c-4.3301.9902-11.0303.9902-14.1902.9902-.1899-.9902-.1899-1.77-.1899-2.7603v-12.6099c5.71,0,9.26,0,13.99.5898-.2-.98-.3999-1.9697-.3999-2.9497,0-.9902.2-1.98.3999-2.96-4.73.79-8.8701.79-13.99.79v-6.5c0-2.1704,0-4.3403.1899-6.7002ZM598.4001,182.9297l-2.3601-20.6899c-.3899-2.3599-.5898-5.9102-.79-8.27-1.3799.3901-2.3599.3901-3.9399.3901-1.5698,0-2.95,0-4.53-.3901-.5898,1.9702-.99,3.1499-2.5598,6.7002-3.1501,7.4897-6.5,14.9697-10.05,22.46-2.76-5.52-10.6401-24.4302-12.02-29.1602-1.1799.3901-2.96.3901-4.1399.3901s-3.3501-.3901-4.5303-.3901c-.2,2.3599-.3999,4.9199-.7898,7.29l-4.3301,28.96c-.4001,2.5698-.79,5.1299-1.3801,7.4902,1.1802-.3901,2.5601-.3901,3.54-.3901.9902,0,2.1702.3901,3.3501.3901,0-3.54.3999-6.8901.5898-10.2402.4001-6.1099,1.3801-12.4199,2.1702-18.5298,2.96,6.5098,5.9099,13.0098,8.6699,19.5098,2.1702,5.1201,2.9602,7.29,3.55,9.46h4.73c.98-2.5601,1.3799-3.5498,3.74-9.2598,4.3401-9.8501,4.73-11.04,9.0701-19.8999.1899,2.1597,1.3701,13,1.5698,15.3696.79,7.6802.9902,11.0303.9902,13.79,1.97-.3901,4.1299-.3901,6.1099-.3901,1.97,0,3.74,0,5.71.3901-.99-4.9302-1.77-10.0498-2.3699-14.98ZM525.1001,154.1699c-2.75,0-5.51.3896-8.27.3896-1.3799,0-4.73-.3896-8.0801-.3896.3901,2.9497.5901,5.9097.5901,18.1196,0,6.5103,0,20.5-.79,25.6201,1.5801-.3901,3.55-.3901,5.52-.3901s4.1399.3901,6.1101.3901c-.2002-3.5498-.4001-7.8799-.4001-10.25v-8.27h5.1301c8.0801,0,15.5601-3.1602,15.5601-13.0098s-6.7002-12.21-15.3701-12.21ZM521.5601,175.0498h-1.5801l.2002-.1899v-16.3599h2.1699c4.9199,0,7.29,0,7.29,7.8799s-4.9302,8.6699-8.0801,8.6699ZM473.0801,153.1797c-15.96,0-24.6299,8.0801-24.6299,23.0498,0,14.9805,10.25,22.4702,24.24,22.4702,12.6099,0,24.6299-7.29,24.8298-23.6499,0-14.5801-8.47-21.8701-24.4399-21.8701ZM472.6902,194.1699c-6.7,0-12.8101-7.6904-12.8101-17.54s3.55-18.9199,13.2-18.9199c8.28,0,12.8101,7.0996,13.01,17.54,0,12.0195-6.7,18.9199-13.3999,18.9199ZM442.9402,191.7998c-3.75.79-10.6401.79-14.78.79-.2002-1.77-.2002-3.7402-.2002-5.52v-20.4902c0-2.5601.4001-7.8799.79-12.4097-1.77.3896-3.5498.3896-5.71.3896-2.1699,0-4.1399,0-6.1099-.3896.1899,2.5596.5898,6.0996.5898,10.04v22.0698c0,4.3398-.2,8.0801-.5898,11.4302,5.71-.1904,11.6199-.5903,15.1699-.5903s7.6799.5903,10.8401.5903c-.2-.79-.4001-1.9702-.4001-2.9502,0-.5898.2002-1.3799.4001-2.96ZM391.9001,159.4897c4.1399,0,10.25,0,14.3899.7798-.3999-.98-.3999-2.1597-.3999-3.1499,0-.98.2-1.9697.3999-2.9497-4.54.5898-7.29.5898-11.24.5898-3.9399,0-9.0598-.5898-14.5798-.5898.3999,2.5596.5898,5.5098.5898,8.27v22.8599c0,3.5498-.1899,9.46-.78,12.6099,3.54-.5898,7.29-.5898,11.6201-.5898,4.3401,0,10.25.1997,14.1899.5898-.2-1.1802-.3899-2.5601-.3899-3.3501s.1899-1.9697.3899-2.96c-4.3401.9902-11.04.9902-14.1899.9902-.1902-.9902-.1902-1.77-.1902-2.7603v-12.6099c5.7102,0,9.2603,0,13.9902.5898-.2002-.98-.4001-1.9697-.4001-2.9497,0-.9902.2-1.98.4001-2.96-4.73.79-8.8701.79-13.9902.79v-6.5c0-2.1704,0-4.3403.1902-6.7002ZM368.4502,154.5596c-1.3801,0-2.75-.3896-4.1301-.3896-1.1899,4.9199-2.96,9.8496-4.73,14.77l-5.72,15.3696c-4.1401-10.0498-7.6799-20.0996-10.8301-30.3398-1.3799.3901-3.5498.3901-5.9199.3901-2.3599,0-4.53-.3901-6.7-.3901,3.55,7.29,3.95,8.27,13.21,32.5098,1.3801,3.9404,2.95,7.6904,3.9399,11.6304,1.1799-.3999,1.77-.3999,3.1501-.3999s2.7598.3999,3.9399.3999c4.9299-14.98,10.4399-29.7603,17.3398-43.9399-.79.3896-2.1699.3896-3.5498.3896ZM308.3601,159.4897c4.1301,0,10.24,0,14.3801.7798-.3901-.98-.3901-2.1597-.3901-3.1499,0-.98.1899-1.9697.3901-2.9497-4.5303.5898-7.29.5898-11.23.5898s-9.0701-.5898-14.5801-.5898c.3899,2.5596.5898,5.5098.5898,8.27v22.8599c0,3.5498-.2,9.46-.79,12.6099,3.55-.5898,7.29-.5898,11.6301-.5898,4.3301,0,10.24.1997,14.1799.5898-.1899-1.1802-.3899-2.5601-.3899-3.3501s.2-1.9697.3899-2.96c-4.3301.9902-11.0298.9902-14.1799.9902-.2-.9902-.2-1.77-.2-2.7603v-12.6099c5.71,0,9.26,0,13.99.5898-.2-.98-.4001-1.9697-.4001-2.9497,0-.9902.2002-1.98.4001-2.96-4.73.79-8.8701.79-13.99.79v-6.5c0-2.1704,0-4.3403.2-6.7002ZM265.0103,154.1699c-4.9302,0-9.6602.3896-14.5901.3896-1.97,0-3.9402-.3896-5.9099-.3896.3999,4.1299.5898,8.27.5898,12.21h.2v19.1201c0,4.1299-.2,8.2695-.5901,12.4097,2.9602-.3901,6.3101-.3901,7.8801-.3901,1.5801,0-5.71.3901,10.25.3901s23.6399-8.6699,23.6399-22.6597-9.45-21.0801-21.4697-21.0801ZM270.52,189.4399c-2.95,3.1499-7.0898,3.9399-10.6399,3.9399-1.97,0-3.3501-.4004-4.1399-.4004-.1902-1.5698-.1902-3.1499-.1902-4.7295v-21.2803c0-2.1602.1902-7.0898.1902-8.4697h5.1299c2.5601,0,5.9099.1997,9.26,2.96,3.9399,3.54,4.73,9.6499,4.73,13.5898,0,2.3701-.4001,10.0498-4.3401,14.3901Z" style="fill:#fff;"/><path d="M892.4001,187.2695c-2.96,0-5.52,2.3604-5.52,5.52,0,3.1504,2.3601,5.5103,5.52,5.5103,3.1499,0,5.51-2.5601,5.51-5.5103,0-2.96-2.5601-5.52-5.51-5.52ZM866.78,194.1699c-9.6599,0-14.98-8.0801-14.98-18.1304s4.73-18.3296,14.3901-18.3296c4.9199,0,9.46,2.1699,11.03,5.9097h1.1899c.1899-1.3799.5898-4.9199,1.77-7.29-4.73-2.1597-6.1802-3.1499-15.1699-3.1499-15.1802,0-24.8301,10.25-24.8301,22.8599s8.8699,22.4604,24.24,22.4604c4.53,0,9.26-.79,13.3899-2.7603.6001-2.7603,1.1899-4.5298,1.78-5.9102l-.99-.5898c-3.3501,2.7603-2.1699,4.9302-11.8201,4.9302ZM829.1401,154.1699c-.98.3896-2.3601.3896-3.3501.3896-.98,0-2.5601-.3896-3.54-.3896.3901,3.1499.79,13.5898.79,14.77v14.3896c-5.3198-5.9097-18.9199-21.0898-25.0298-29.1597-1.1802.3896-2.3601.3896-3.7402.3896s-2.7598-.3896-4.1399-.3896c.3899,4.3301.3899,8.4697.3899,18.9097s0,13.2002-.98,24.8301c1.1802-.3901,2.3601-.3901,3.3501-.3901.98,0,2.1699.3901,3.3501.3901-.2002-2.5601-.79-11.23-.79-13.9897v-15.7603l16.1599,18.1201c6.7,7.8901,7.48,8.8701,9.46,11.6299,1.1799-.3901,2.3601-.3901,3.74-.3901s2.3601.3901,3.74.3901c-.5901-4.5298-.5901-6.5-.5901-13.6001,0-7.0898.4001-24.6299,1.1802-30.1396ZM775.3501,153.9697c-.79.3901-3.55.3901-5.71.3901-2.1699,0-4.1401-.3901-5.9102-.3901.5901,6.2998.5901,14.5801.5901,21.0801,0,3.1499,0,17.3398-.5901,22.8599,1.9702-.3901,3.9402-.3901,5.9102-.3901s3.74.3901,5.71.3901c-.5898-5.52-.5898-13.79-.5898-21.0801,0-7.2998.1997-15.77.5898-22.8599Z" style="fill:#fff;"/></g></g></svg>