<?xml version="1.0" encoding="UTF-8"?><svg id="Layer_2" xmlns="http://www.w3.org/2000/svg" viewBox="0 0 897.9101 208.1029"><g id="Components"><g id="_9d972093-333f-4474-a092-ee9ea6b35a61_1"><polygon points="120.1483 0 0 208.1029 240.2965 208.1029 120.1483 0" style="fill:#fff;"/><path d="M62.6608,138.7813c.8296-8.8032,1.7831-20.3576,1.7831-31.6643l.2866-49.4208c0-9.8658-1.0704-19.9637-2.2637-30.2994l-.4289-3.7202,3.7231.3997c6.3387.6785,11.3516.9807,16.2533.9807,6.833,0,13.7069-.2535,20.3537-.4972,6.7023-.2457,13.6318-.5011,20.5759-.5011,38.5694,0,63.4904,22.3346,63.4904,56.9021,0,39.399-24.7465,61.0961-69.6799,61.0961-10.3513,0-19.2998-.1521-26.4906-.2749-5.2712-.0916-9.8064-.1696-13.6542-.1696-4.9427,0-8.2134.1306-10.6048.4231l-3.6938.4504.35-3.7046ZM99.9872,124.0664c2.4343.2788,5.4428.4192,8.9806.4192,12.5692,0,21.7546-2.9286,28.0816-8.9553,10.8963-10.7062,11.45-30.8415,11.45-34.7683,0-8.4133-1.6164-23.8067-12.4425-32.3954-8.6121-6.7384-17.7917-6.7384-24.494-6.7384-5.5383,0-9.084.1053-11.2356.2086-.0458,1.5813-.116,3.5525-.1911,5.6875-.1657,4.6794-.3529,9.9828-.3529,13.0713v53.7084c0,3.1957,0,6.4791.2038,9.7625Z" style="fill:#e01e2d;"/><path d="M122.9434,27.054c33.9416,0,60.4959,18.1687,60.4959,53.9073s-21.7625,58.1-66.6853,58.1c-17.7649,0-30.9224-.4436-40.1446-.4436-4.612-.0002-8.2385.1106-10.9675.4436.9983-10.5816,1.7969-21.3631,1.7969-31.945,0,0,.2866-49.4021.2865-49.4021,0-10.0925-1.0852-20.2781-2.2831-30.6601,5.5904.5991,10.9811.9983,16.5715.9983,13.7763,0,27.1533-.9983,40.9296-.9983h0ZM108.9675,127.4813c9.9828,0,21.7626-1.797,30.1481-9.7832,11.3804-11.1807,12.3787-30.9468,12.3787-36.9364,0-9.7832-1.9966-25.5561-13.5766-34.7403-9.1842-7.1876-18.7677-7.3872-26.3546-7.3872s-12.1791.1996-14.1756.3992c0,3.3941-.599,15.9725-.599,21.563v53.7074c0,3.9931,0,8.1861.3993,12.3788,2.1962.3992,5.79.7987,11.7797.7987h0ZM58.6336,20.3004l.8585,7.4401c1.1824,10.247,2.2436,20.2501,2.2436,29.9736l-.2864,49.3672c0,11.2168-.9462,22.68-1.7705,31.4174l-.699,7.4091,7.3873-.901c2.2358-.2727,5.4904-.3997,10.2424-.3995,3.8106,0,8.3484.0775,13.6027.1672,7.2019.1231,16.165.2764,26.5419.2764,46.186,0,72.6749-23.3597,72.6749-64.0897,0-36.3859-26.0972-59.8969-66.4856-59.8969-6.9982,0-13.9561.2559-20.6848.5033-6.6206.2432-13.4666.495-20.2447.495-4.7966,0-9.7106-.2973-15.9333-.9642l-7.4469-.7979h0ZM103.231,44.7262c2.1865-.0614,4.9619-.1024,8.3321-.1024,8.1248,0,15.4381.4601,22.6632,6.1145,9.8092,7.7798,11.2784,22.1513,11.2784,30.0233,0,3.7177-.5104,22.7643-10.5867,32.6638-5.6779,5.4065-14.1883,8.0662-25.9504,8.0662-2.2777,0-4.3188-.0595-6.1114-.1774-.078-2.35-.078-4.7033-.078-7.0104v-53.7074c0-3.0363.1866-8.3116.3512-12.966.0358-1.0127.0703-1.9883.1016-2.9042h0Z"/><path d="M337.574,137.8633c-5.1911-.599-10.1825-.7986-15.1739-.7986s-9.9828,0-14.9742.7986c.9983-16.5715,1.3976-44.5234,1.3976-62.4925s-.3993-44.7231-1.5973-55.1052c3.5938.3993,9.1842.7986,15.1739.7986s11.5801-.3993,14.9742-.7986c-.7986,8.3856-1.3976,30.3478-1.3976,54.1069s.599,48.7162,1.5973,63.4908ZM395.2748,72.1763c6.7883-9.7832,15.5732-13.976,28.5509-13.976s20.1653,4.1928,24.9571,14.5749c6.5887-9.1842,15.9725-14.5749,28.3512-14.5749s27.9519,8.5852,27.9519,26.3547c-.1997,9.7832-.1997,26.3547-.1997,36.7368s.5989,11.9794.7986,16.5715c-5.1911-.599-10.3822-.7986-15.3736-.7986s-11.3804.3993-14.1756.7986c1.198-11.5801,1.7969-25.7557,1.7969-37.3358s-.3993-26.9536-12.778-26.9536-14.7746,6.7883-14.7746,19.766v29.1498c0,4.3924.599,10.9811.7986,15.5732-5.1911-.3993-9.9828-.7986-15.1739-.7986s-9.5835,0-13.976.7986c1.3976-9.9828,1.9966-22.7608,1.9966-33.143,0-23.1601-1.5973-31.1464-13.5766-31.1464s-13.976,11.1808-13.976,19.5663v28.5509c0,4.1928.1997,10.7815.7986,16.3718-3.9931-.3993-9.3838-.7986-14.9742-.7986s-12.1791.3993-14.1756.7986c.7986-5.9897.9983-12.3787.9983-18.5681v-36.9364c0-7.9863-.599-15.7729-1.3976-23.5595,4.5921.599,9.5835.7986,14.1756.7986s9.7832-.3993,14.5749-.7986l-1.198,12.9777h.0001ZM688.7698,84.1557c-2.9948-1.9966-5.9897-3.3942-9.5835-3.3942-12.3787,0-12.3787,12.3787-12.3787,22.7608s.1997,20.365,1.7969,34.3409c-4.5921-.599-10.9811-.7986-15.9725-.7986s-11.7797.3993-13.976.7986c.7986-9.9828,1.198-13.976,1.198-34.7402s0-29.1498-1.3976-43.9244c2.3959.3993,7.9863.7986,14.5749.7986s11.5801-.3993,13.7763-.7986l-1.198,16.7711c8.1859-18.7677,17.5697-18.1687,26.3547-17.7694-.7986,5.1911-1.7969,13.1773-1.198,24.7574l-1.9966,1.1979h0ZM773.6238,113.9045c-6.5886,15.3735-7.1876,17.9691-8.9845,23.7591-3.5938-.3993-7.5869-.7986-11.3804-.7986s-7.5869.3993-11.1808.7986c-4.9914-17.3701-20.365-56.5028-31.3461-78.6647,5.5904.7986,11.1808.7986,16.7711.7986s10.7814,0,15.9725-.7986c3.1945,13.1773,9.5835,31.1464,17.1705,52.7093,13.1773-34.7402,13.976-36.3375,18.7677-52.7093,3.9931.599,7.9863.7986,10.3822.7986s5.5904-.3993,8.3856-.7986c-2.1962,3.5938-5.79,9.3839-8.9845,17.1705l-15.5732,37.7351ZM615.6955,127.6847c-.9584,1.0183-3.1146,1.9966-5.7901,1.9966-5.9897,0-5.9897-4.5921-5.9897-11.1808,0-15.9725.7987-27.5526.7987-34.3408s-1.3976-13.5767-7.3873-18.3684c-7.1876-5.5904-17.1704-7.5869-26.3547-7.5869s-21.3633,1.9966-33.3427,10.5818c1.797,2.7951,2.5956,6.5886,3.1946,9.9828v-.1997h.1996c3.3942-2.7951,11.3804-8.3855,21.7626-8.3855s15.7728,4.7917,15.7728,13.7762c0,4.3925,0,4.9914-12.3786,8.3856-23.5596,6.389-35.1396,9.7832-35.1396,26.3547,0,9.1841,10.3822,21.5629,24.9571,21.5629s20.5646-6.7884,24.1585-10.9811c1.3975,2.9948,4.7917,10.3822,16.7711,10.3822,7.7867,0,15.174-3.5938,18.7678-5.5904-.3993-1.9966-.3993-4.1929,0-6.389ZM567.778,127.485c-9.3839,0-10.5818-6.988-10.5818-11.7797,0-11.1808,4.5921-14.9742,21.1635-18.1688,0,22.9007-1.1979,29.9485-10.5818,29.9485ZM897.9101,127.6847c-.9584,1.0183-3.1146,1.9966-5.7901,1.9966-5.9897,0-5.9897-4.5921-5.9897-11.1808,0-15.9725.7987-27.5526.7987-34.3408s-1.3976-13.5767-7.3873-18.3684c-7.1876-5.5904-17.1704-7.5869-26.3547-7.5869s-21.3633,1.9966-33.3427,10.5818c1.797,2.7951,2.5956,6.5886,3.1946,9.9828v-.1997h.1996c3.3942-2.7951,11.3804-8.3855,21.7626-8.3855s15.7728,4.7917,15.7728,13.7762c0,4.3925,0,4.9914-12.3786,8.3856-23.5596,6.389-35.1396,9.7832-35.1396,26.3547,0,9.1841,10.3822,21.5629,24.9571,21.5629s20.5646-6.7884,24.1585-10.9811c1.3975,2.9948,4.7917,10.3822,16.7711,10.3822,7.7867,0,15.174-3.5938,18.7678-5.5904-.3993-1.9966-.3993-4.1929,0-6.389ZM849.9925,127.485c-9.3839,0-10.5818-6.988-10.5818-11.7797,0-11.1808,4.5921-14.9742,21.1635-18.1688,0,22.9007-1.1979,29.9485-10.5818,29.9485ZM251.1227,99.3335c10.1826,0,20.365.1996,30.5475.5989.1996-1.3976.5989-4.1329.5989-6.389,0-19.9656-16.9708-35.7384-39.532-35.7384s-44.1242,16.7711-44.1242,40.9296,15.9725,41.3289,45.1224,41.3289c6.3889,0,20.1653-.9983,30.9468-7.7867.9983-2.9948,2.5156-7.0478,4.5921-11.5801l-3.1946-2.9948c-3.0347,5.9497-9.2441,9.1841-23.1601,9.1841-23.5594,0-25.7557-16.9708-25.556-26.9536,11.5801-.5989,13.5766-.5989,23.759-.5989ZM242.1382,65.5915c8.9845,0,12.3787,6.389,12.5785,25.1568h-27.1534c-.3993-19.9656,5.5904-25.1568,14.5749-25.1568Z" style="fill:#fff;"/><path d="M80.8914,164.213c-1.1823-4.7291-4.9261-6.1084-8.2759-6.1084s-7.2906,0-7.2906,5.5173,2.9557,5.1232,12.2168,8.867c1.7734.7882,4.335,2.3645,6.1084,4.9261,1.3793,2.1675,1.9704,4.7291,1.9704,7.0936,0,8.2759-5.9113,14.3843-16.9458,14.3843s-10.0493-1.9704-12.2168-3.1527c.7882-2.5616,1.3793-6.5025,1.3793-8.67h1.5764c.9852,5.7143,5.9113,7.2906,9.6552,7.2906,5.3202,0,7.6847-3.1527,7.6847-6.3054s-2.1675-4.532-10.0493-7.8818c-5.7143-2.5616-9.6552-5.7143-9.6552-12.8079s5.9113-13.5961,15.5665-13.5961,9.2611,1.7734,11.8227,2.9557c-1.1823,2.1675-1.9704,5.9113-2.1675,7.4877,0,0-1.3793,0-1.3793,0ZM108.4776,197.9076c-1.9704,0-3.7438-.3941-5.7143-.3941s-3.9409,0-5.9113.3941c.5911-5.5173.5911-19.7044.5911-22.8572,0-6.5025,0-14.7783-.5911-21.0838,1.7734,0,3.7438.3941,5.9113.3941s4.9261,0,5.7143-.3941c-.3941,7.0936-.5911,15.5665-.5911,22.8572s0,15.5665.5911,21.0838ZM129.1673,159.484c-3.1527,0-7.0936,0-11.8227.5911,0-.9852.3941-2.1675.3941-3.1527s0-1.9704-.3941-2.7586c3.1527.3941,9.6552.5911,17.1429.5911s13.0049,0,17.1429-.5911c0,1.1823-.3941,2.1675-.3941,2.9557s0,2.3645.3941,2.9557c-3.7438-.3941-7.8818-.5911-11.4286-.5911v27.5862c0,3.7438,0,7.2906.3941,10.6404-1.7734,0-4.532-.3941-6.3054-.3941s-3.9409,0-5.7143.3941c.5911-2.9557.5911-10.8374.5911-14.3843.3941-7.6847.3941-16.1576.197-23.8424h-.197ZM160.6944,162.4396c0-2.7586,0-5.7143-.5911-8.2759,5.5173,0,10.8374.5911,14.7783.5911s6.8966,0,11.2315-.5911c0,.9852-.3941,1.9704-.3941,2.9557s0,2.1675.3941,3.1527c-4.1379-.7882-10.2463-.7882-14.3843-.7882v13.202c5.1232,0,9.2611,0,14.1872-.7882,0,.9852-.3941,1.9704-.3941,2.9557s0,1.9704.3941,2.9557c-4.7291-.5911-8.2759-.5911-14.1872-.5911v15.3695c3.1527,0,9.8522,0,14.3843-.9852,0,.9852-.3941,2.1675-.3941,2.9557s0,2.1675.3941,3.3498c-4.1379-.3941-10.0493-.5911-14.3843-.5911s-8.2759,0-11.8227.5911c.5911-3.1527.7882-9.064.7882-12.6108,0,0,0-22.8572,0-22.8572Z"/><path d="M245.1018,166.3805c0-3.9409-.1971-8.0788-.5911-12.2168,1.9704,0,3.9409.3941,5.9113.3941,4.9261,0,9.6552-.3941,14.5813-.3941,12.0197,0,21.4778,7.0936,21.4778,21.0838s-7.6847,22.6601-23.6453,22.6601-8.6699-.3941-10.2463-.3941-4.9261,0-7.8818.3941c.3941-4.1379.5911-8.2759.5911-12.4138v-19.1133h-.197ZM255.5452,188.2525c0,1.5764,0,3.1527.1971,4.7291.7882,0,2.1675.3941,4.1379.3941,3.5468,0,7.6847-.7882,10.6404-3.9409,3.9409-4.335,4.335-12.0197,4.335-14.3843,0-3.9409-.7882-10.0493-4.7291-13.5961-3.3498-2.7586-6.6995-2.9557-9.2611-2.9557h-5.1232c0,1.3793-.1971,6.3054-.1971,8.4729v21.2808ZM297.5156,162.4396c0-2.7586-.1971-5.7143-.5911-8.2759,5.5173,0,10.6404.5911,14.5813.5911s6.6995,0,11.2315-.5911c-.1971.9852-.3941,1.9704-.3941,2.9557s0,2.1675.3941,3.1527c-4.1379-.7882-10.2463-.7882-14.3843-.7882-.1971,2.3645-.1971,4.532-.1971,6.6995v6.5025c5.1232,0,9.2611,0,13.9902-.7882-.1971.9852-.3941,1.9704-.3941,2.9557s.1971,1.9704.3941,2.9557c-4.7291-.5911-8.2759-.5911-13.9902-.5911v12.6108c0,.9852,0,1.7734.1971,2.7586,3.1527,0,9.8522,0,14.1872-.9852-.1971.9852-.3941,2.1675-.3941,2.9557s.1971,2.1675.3941,3.3498c-3.9409-.3941-9.8522-.5911-14.1872-.5911s-8.0788,0-11.6256.5911c.5911-3.1527.7882-9.064.7882-12.6108v-22.8572h0ZM359.5846,168.9421c1.7734-4.9261,3.5468-9.8522,4.7291-14.7783,1.3793,0,2.7586.3941,4.1379.3941s2.7586,0,3.5468-.3941c-6.8966,14.1872-12.4138,28.9655-17.3399,43.9409-1.1823,0-2.5616-.3941-3.9409-.3941s-1.9704,0-3.1527.3941c-.9852-3.9409-2.5616-7.6847-3.9409-11.6256-9.2611-24.2365-9.6552-25.2217-13.202-32.5123,2.1675,0,4.335.3941,6.6995.3941s4.532,0,5.9113-.3941c3.1527,10.2463,6.6995,20.2956,10.8374,30.3449l5.7143-15.3695h0ZM381.0625,162.4396c0-2.7586-.1971-5.7143-.5911-8.2759,5.5173,0,10.6404.5911,14.5813.5911s6.6995,0,11.2315-.5911c-.1971.9852-.3941,1.9704-.3941,2.9557s0,2.1675.3941,3.1527c-4.1379-.7882-10.2463-.7882-14.3843-.7882-.1971,2.3645-.1971,4.532-.1971,6.6995v6.5025c5.1232,0,9.2611,0,13.9902-.7882-.1971.9852-.3941,1.9704-.3941,2.9557s.1971,1.9704.3941,2.9557c-4.7291-.5911-8.2759-.5911-13.9902-.5911v12.6108c0,.9852,0,1.7734.1971,2.7586,3.1527,0,9.8522,0,14.1872-.9852-.1971.9852-.3941,2.1675-.3941,2.9557s.1971,2.1675.3941,3.3498c-3.9409-.3941-9.8522-.5911-14.1872-.5911s-8.0788,0-11.6256.5911c.5911-3.1527.7882-9.064.7882-12.6108v-22.8572h0ZM417.5157,164.213c0-3.9409-.3941-7.4877-.5911-10.0493,1.9704.3941,3.9409.3941,6.1084.3941s3.9409,0,5.7143-.3941c-.3941,4.532-.7882,9.8522-.7882,12.4138v20.4926c0,1.7734,0,3.7438.1971,5.5173,4.1379,0,11.0345,0,14.7783-.7882-.1971,1.5764-.3941,2.3645-.3941,2.9557,0,.9852.1971,2.1675.3941,2.9557-3.1527,0-7.2906-.5911-10.8374-.5911s-9.4581.3941-15.1724.5911c.3941-3.3498.5911-7.0936.5911-11.4286v-22.069h0ZM472.6882,198.6958c-13.9902,0-24.2365-7.4877-24.2365-22.4631s8.6699-23.0542,24.6306-23.0542,24.4335,7.2906,24.4335,21.8719c-.1971,16.3547-12.2168,23.6453-24.8276,23.6453h0ZM473.0822,157.7106c-9.6552,0-13.202,9.064-13.202,18.9163s6.1084,17.537,12.8079,17.537,13.399-6.8966,13.399-18.9163c-.1971-10.4434-4.7291-17.537-13.0049-17.537ZM519.7818,187.6613c0,2.3645.1971,6.6995.3941,10.2463-1.9704,0-4.1379-.3941-6.1084-.3941s-3.9409,0-5.5172.3941c.7882-5.1232.7882-19.1133.7882-25.6158,0-12.2168-.1971-15.1724-.5911-18.1281,3.3498,0,6.6995.3941,8.0788.3941,2.7586,0,5.5172-.3941,8.2759-.3941,8.6699,0,15.3694,2.3645,15.3694,12.2168s-7.4877,13.0049-15.5665,13.0049-3.9409,0-5.1232,0v8.4729h0v-.197ZM519.9789,175.0505h1.5763c3.1527,0,8.0788-.7882,8.0788-8.67s-2.3646-7.8818-7.2907-7.8818-1.3793,0-2.1675,0v16.3547q-.1314,0,0,0l-.197.197ZM598.4025,182.9323c.5911,4.9261,1.3793,10.0493,2.3646,14.9754-1.9704-.3941-3.7438-.3941-5.7143-.3941s-4.1379,0-6.1084.3941c0-2.7586-.1971-6.1084-.9852-13.7931-.1971-2.3645-1.3793-13.202-1.5763-15.3695-4.335,8.867-4.7291,10.0493-9.0641,19.9015-2.3646,5.7143-2.7586,6.6995-3.7438,9.2611h-4.7291c-.5911-2.1675-1.3793-4.335-3.5468-9.4581-2.7586-6.5025-5.7143-13.0049-8.6699-19.5074-.7882,6.1084-1.7734,12.4138-2.1675,18.5222-.1971,3.3498-.5911,6.6995-.5911,10.2463-1.1823,0-2.3646-.3941-3.3498-.3941s-2.3646,0-3.5468.3941c.5911-2.3645.9852-4.9261,1.3793-7.4877l4.335-28.9655c.3941-2.3645.5911-4.9261.7882-7.2906,1.1823,0,3.3498.3941,4.532.3941s2.9557,0,4.1379-.3941c1.3793,4.7291,9.2611,23.6453,12.0197,29.1626,3.5468-7.4877,6.8966-14.9754,10.0493-22.4631,1.5763-3.5468,1.9704-4.7291,2.5616-6.6995,1.5763.3941,2.9557.3941,4.532.3941s2.5616,0,3.9409-.3941c.1971,2.3645.3941,5.9113.7882,8.2759l2.3646,20.6897h0ZM612.9838,162.4396c0-2.7586-.1971-5.7143-.5911-8.2759,5.5172,0,10.6404.5911,14.5813.5911s6.6995,0,11.2316-.5911c-.1971.9852-.3941,1.9704-.3941,2.9557s0,2.1675.3941,3.1527c-4.1379-.7882-10.2463-.7882-14.3842-.7882-.1971,2.3645-.1971,4.532-.1971,6.6995v6.5025c5.1232,0,9.2611,0,13.9902-.7882-.1971.9852-.3941,1.9704-.3941,2.9557s.1971,1.9704.3941,2.9557c-4.7291-.5911-8.2759-.5911-13.9902-.5911v12.6108c0,.9852,0,1.7734.1971,2.7586,3.1527,0,9.8522,0,14.1872-.9852-.1971.9852-.3941,2.1675-.3941,2.9557s.1971,2.1675.3941,3.3498c-3.9409-.3941-9.8522-.5911-14.1872-.5911s-8.0788,0-11.6256.5911c.5911-3.1527.7882-9.064.7882-12.6108v-22.8572h0ZM683.5258,168.9421c0-1.1823-.3941-11.6256-.7882-14.7783.9852,0,2.5616.3941,3.5468.3941s2.3646,0,3.3498-.3941c-.7882,5.5173-1.1823,23.0542-1.1823,30.1478s0,9.064.5911,13.5961c-1.3793,0-2.3646-.3941-3.7438-.3941s-2.5616,0-3.7438.3941c-1.9704-2.7586-2.7586-3.7438-9.4581-11.6256l-16.1577-18.1281v15.7636c0,2.7586.5911,11.4286.7882,13.9902-1.1823,0-2.3646-.3941-3.3498-.3941s-2.1675,0-3.3498.3941c.9852-11.6256.9852-14.3843.9852-24.8276s0-14.5813-.3941-18.9163c1.3793,0,2.7586.3941,4.1379.3941s2.5616,0,3.7438-.3941c6.1084,8.0788,19.7044,23.2513,25.0247,29.1626v-14.3843h0ZM711.309,159.484c-2.9557,0-7.0936,0-11.8227.5911.1971-.9852.3941-2.1675.3941-3.1527s-.1971-1.9704-.3941-2.7586c3.1527.3941,9.6552.5911,16.9458.5911s13.0049,0,16.9458-.5911c-.1971,1.1823-.3941,2.1675-.3941,2.9557s.1971,2.3645.3941,2.9557c-3.7438-.3941-7.6847-.5911-11.2316-.5911-.1971,2.7586-.1971,7.0936-.1971,11.8227v15.7636c0,3.7438.1971,7.2906.3941,10.6404-1.7734,0-4.532-.3941-6.3054-.3941s-3.9409,0-5.5172.3941c.5911-2.9557.5911-10.8374.5911-14.3843.1971-7.6847.1971-16.1576.1971-23.8424Z" style="fill:#fff;"/><path d="M775.3484,197.9076c-1.9704,0-3.7438-.3941-5.7143-.3941s-3.9409,0-5.9113.3941c.5911-5.5173.5911-19.7044.5911-22.8572,0-6.5025,0-14.7783-.5911-21.0838,1.7734,0,3.7438.3941,5.9113.3941s4.9261,0,5.7143-.3941c-.3941,7.0936-.5911,15.5665-.5911,22.8572s0,15.5665.5911,21.0838ZM823.0332,168.9421c0-1.1823-.3941-11.6256-.7882-14.7783.9852,0,2.5616.3941,3.5468.3941s2.3646,0,3.3498-.3941c-.7882,5.5173-1.1823,23.0542-1.1823,30.1478s0,9.064.5911,13.5961c-1.3793,0-2.3646-.3941-3.7438-.3941s-2.5616,0-3.7438.3941c-1.9704-2.7586-2.7586-3.7438-9.4581-11.6256l-16.1577-18.1281v15.7636c0,2.7586.5911,11.4286.7882,13.9902-1.1823,0-2.3646-.3941-3.3498-.3941s-2.1675,0-3.3498.3941c.9852-11.6256.9852-14.3843.9852-24.8276s0-14.5813-.3941-18.9163c1.3793,0,2.7586.3941,4.1379.3941s2.5616,0,3.7438-.3941c6.1084,8.0788,19.7044,23.2513,25.0247,29.1626v-14.3843h0ZM877.2206,163.6219c-1.5763-3.7438-6.1085-5.9113-11.0346-5.9113-9.6552,0-14.3842,8.2759-14.3842,18.3251s5.3202,18.1281,14.9754,18.1281,8.4729-2.1675,11.8227-4.9261l.9852.5911c-.5911,1.3793-1.1823,3.1527-1.7734,5.9113-4.1379,1.9704-8.867,2.7586-13.399,2.7586-15.3694,0-24.2364-9.8522-24.2364-22.4631s9.6552-22.8572,24.8276-22.8572c8.989,0,10.4433.9852,15.1724,3.1527-1.1823,2.3645-1.5763,5.9113-1.7734,7.2906h-1.1823ZM886.8756,192.7845c0-3.1527,2.5616-5.5173,5.5172-5.5173s5.5172,2.5616,5.5172,5.5173-2.3646,5.5173-5.5172,5.5173-5.5172-2.3645-5.5172-5.5173Z" style="fill:#fff;"/></g></g></svg>